<svg style="max-height: 500px" version="1.1" id="Layer_1" xmlns="http://www.w3.org/2000/svg" xmlns:xlink="http://www.w3.org/1999/xlink" x="0px" y="0px" viewBox="12.648994 20.725933363200003 448.8068631326125 91.86071749171201" xml:space="preserve" width="448.8068631326125" height="91.86071749171201">
<path fill="#FFFFFF" opacity="1.000000" stroke="none" d="M733.000000,577.000000 &#10;&#9;C490.166748,577.000000 247.833481,576.989929 5.500257,577.093384 &#10;&#9;C1.751609,577.094971 0.904173,576.250061 0.906290,572.500183 &#10;&#9;C1.012964,383.500305 1.012943,194.500336 0.906404,5.500442 &#10;&#9;C0.904291,1.752076 1.749566,0.905910 5.499634,0.906911 &#10;&#9;C379.166168,1.006577 752.832703,1.006558 1126.499268,0.907115 &#10;&#9;C1130.246460,0.906118 1131.095947,1.748189 1131.093872,5.499325 &#10;&#9;C1130.987061,194.499207 1130.987061,383.499146 1131.093506,572.499023 &#10;&#9;C1131.095581,576.246216 1130.252563,577.097595 1126.500732,577.094360 &#10;&#9;C995.500549,576.981262 864.500305,577.000000 733.000000,577.000000 &#10;z"/>
<path fill="#020202" opacity="1.000000" stroke="none" d="M293.809998,32.411320 &#10;&#9;C300.989319,31.695463 308.014954,32.654766 314.929810,31.355934 &#10;&#9;C317.631165,30.848534 317.645752,32.365799 317.678101,34.098400 &#10;&#9;C317.780670,39.586235 318.121246,45.090267 317.825348,50.558582 &#10;&#9;C317.573029,55.221016 318.920502,56.204662 322.925964,53.892071 &#10;&#9;C323.910065,53.323902 325.102448,53.116497 326.551453,52.530624 &#10;&#9;C327.420624,52.202129 327.930908,52.055138 328.722229,51.963818 &#10;&#9;C330.382782,51.953945 331.779755,51.971355 333.594910,51.958580 &#10;&#9;C340.238556,52.471054 343.918335,56.080734 344.329163,62.391338 &#10;&#9;C344.673889,67.686775 344.403687,73.002251 344.455688,78.308594 &#10;&#9;C344.477234,80.506958 344.674988,82.485481 346.763611,83.980888 &#10;&#9;C349.778931,86.139786 348.221954,87.410362 345.173798,88.289154 &#10;&#9;C339.029663,88.463570 333.327789,88.360825 327.203979,88.395653 &#10;&#9;C321.384796,87.686264 321.856537,87.785469 322.961639,82.530350 &#10;&#9;C324.394958,75.714401 323.752991,68.706795 323.241516,61.781216 &#10;&#9;C323.149780,60.538830 322.275085,59.712204 320.651581,59.431614 &#10;&#9;C318.853760,59.536160 318.440765,60.496666 318.386047,62.136154 &#10;&#9;C319.489349,69.899872 318.927948,77.425774 320.311707,84.782547 &#10;&#9;C320.507294,85.822388 320.415436,86.756668 319.160614,87.706360 &#10;&#9;C312.936005,88.923973 307.053711,88.141052 300.731140,88.416214 &#10;&#9;C298.359833,88.494087 296.456329,88.572876 294.341858,87.323380 &#10;&#9;C292.880524,84.383682 295.007202,85.207527 296.556396,84.924225 &#10;&#9;C298.287811,83.518242 297.986603,81.794380 297.989807,80.171478 &#10;&#9;C298.015137,67.271004 297.659912,54.356232 298.192810,41.477848 &#10;&#9;C298.374237,37.093685 294.837250,35.816177 293.809998,32.411320 &#10;z"/>
<path fill="#050505" opacity="1.000000" stroke="none" d="M400.264587,55.352623 &#10;&#9;C399.183197,53.280453 400.224457,53.037945 401.576843,52.988274 &#10;&#9;C408.212860,52.744545 415.980682,50.825989 421.204468,52.888241 &#10;&#9;C427.618591,55.420406 431.887848,49.927074 437.550293,52.075069 &#10;&#9;C438.871429,52.039936 439.757019,52.000145 440.742096,52.823841 &#10;&#9;C441.442749,53.384373 441.921875,53.699425 442.681274,54.095139 &#10;&#9;C451.158386,58.710194 453.840302,68.950195 449.438080,78.904213 &#10;&#9;C445.501862,87.804535 437.847687,91.210121 428.770447,87.750351 &#10;&#9;C425.868256,86.644173 425.031738,87.451431 425.378082,90.121811 &#10;&#9;C425.952972,94.554321 423.603638,99.450623 427.731750,103.613007 &#10;&#9;C428.790955,104.058655 429.065247,104.590652 428.974365,105.652664 &#10;&#9;C428.457397,106.473412 427.927246,106.994156 427.283112,107.039169 &#10;&#9;C418.440521,107.656998 409.590393,108.471611 400.394409,106.298203 &#10;&#9;C398.761139,103.019325 401.313568,104.374374 402.646423,103.908051 &#10;&#9;C404.516327,102.166702 403.896942,100.081665 403.991791,98.145973 &#10;&#9;C404.559357,86.564117 402.926483,74.981735 403.994171,63.396973 &#10;&#9;C404.288025,60.208763 403.453461,57.477600 400.264587,55.352623 &#10;z"/>
<path fill="#060606" opacity="1.000000" stroke="none" d="M243.392090,75.354523 &#10;&#9;C244.202148,72.381134 243.209717,69.675018 244.338104,66.994011 &#10;&#9;C246.681046,67.720131 245.887360,69.690804 246.154510,71.096779 &#10;&#9;C247.879807,80.176743 256.689026,87.598778 265.223175,86.936081 &#10;&#9;C268.624603,86.671951 272.042725,85.899239 273.137878,82.038307 &#10;&#9;C274.278931,78.015640 271.492676,75.914001 268.546570,74.130257 &#10;&#9;C264.285828,71.550560 259.769165,69.343918 255.722290,66.470268 &#10;&#9;C245.730850,59.375465 242.860413,49.610138 247.739914,40.574558 &#10;&#9;C252.601929,31.571369 264.571167,26.780231 274.521851,31.589100 &#10;&#9;C280.348206,34.404797 284.037506,33.735931 288.544861,29.964020 &#10;&#9;C291.899048,35.877296 290.672058,41.918167 289.754791,47.926811 &#10;&#9;C289.622925,48.790577 288.818390,49.241486 287.474121,49.160015 &#10;&#9;C286.712769,47.543182 286.402802,46.131626 285.952881,44.385288 &#10;&#9;C282.389069,38.958107 278.053406,35.129951 271.856201,33.777901 &#10;&#9;C269.544830,33.273624 267.303009,32.992214 264.846161,34.424019 &#10;&#9;C261.734741,36.211765 261.670013,38.367661 263.538635,41.110153 &#10;&#9;C266.088928,43.572128 268.925171,45.030056 271.670624,47.071373 &#10;&#9;C272.313354,47.801838 272.873505,48.200581 273.687195,48.661510 &#10;&#9;C274.354858,48.527363 274.765594,48.523796 275.154846,49.073059 &#10;&#9;C275.137360,49.400524 275.373291,49.713329 275.565643,49.750351 &#10;&#9;C288.667084,55.101719 293.470520,62.895157 290.247314,75.375061 &#10;&#9;C289.140808,79.659286 286.336487,82.790161 282.857666,85.051537 &#10;&#9;C275.628021,89.751076 267.564880,91.962585 259.194641,89.114784 &#10;&#9;C254.075241,87.373016 249.481949,86.478638 244.306030,89.291138 &#10;&#9;C243.884003,88.994316 243.846924,88.805122 243.717773,88.341774 &#10;&#9;C241.801926,84.034645 242.179688,79.918404 243.392090,75.354523 &#10;z"/>
<path fill="#060606" opacity="1.000000" stroke="none" d="M27.283854,89.284706 &#10;&#9;C26.890144,88.989487 26.856003,88.804367 26.739506,88.349174 &#10;&#9;C25.444115,83.349831 26.004927,78.574600 26.474619,73.364784 &#10;&#9;C27.165541,71.032898 26.237011,68.960602 27.346386,67.094391 &#10;&#9;C29.732714,67.419998 28.854351,69.353615 29.081823,70.600121 &#10;&#9;C30.809219,80.065887 39.512928,87.608032 48.216084,86.936478 &#10;&#9;C51.618519,86.673935 55.025791,85.902382 56.132851,82.040321 &#10;&#9;C57.289787,78.004250 54.489021,75.916801 51.553932,74.133881 &#10;&#9;C47.297043,71.548012 42.773010,69.352280 38.728790,66.475754 &#10;&#9;C28.725092,59.360462 25.860033,49.613583 30.740871,40.579441 &#10;&#9;C35.609463,31.567959 47.549870,26.782545 57.516018,31.587181 &#10;&#9;C63.336788,34.393345 67.028824,33.751225 71.535957,29.971350 &#10;&#9;C74.737846,35.523525 74.243256,46.173508 70.531662,49.158165 &#10;&#9;C69.968300,48.562126 69.865952,48.143311 69.672577,47.409142 &#10;&#9;C67.367081,42.379173 64.820763,37.981968 59.881535,35.502232 &#10;&#9;C56.835033,33.972744 53.733433,32.967430 50.302322,33.484409 &#10;&#9;C48.225227,33.797375 46.433109,34.659256 45.781979,36.853409 &#10;&#9;C45.129078,39.053535 46.136986,40.737305 47.777874,42.096573 &#10;&#9;C52.018616,45.609486 57.153511,47.692520 61.678890,50.740696 &#10;&#9;C65.228203,53.131416 69.115936,55.150436 71.390854,59.082199 &#10;&#9;C77.087753,68.928246 73.438881,81.706909 63.132904,86.737350 &#10;&#9;C56.414806,90.016518 49.174664,91.715645 41.906078,88.921356 &#10;&#9;C36.887749,86.992142 32.298367,85.959305 27.283854,89.284706 &#10;z"/>
<path fill="#050505" opacity="1.000000" stroke="none" d="M131.837158,53.290230 &#10;&#9;C133.437714,53.016640 134.798172,52.994804 136.563965,52.923565 &#10;&#9;C139.659866,51.506115 142.439041,51.869469 145.625092,52.708248 &#10;&#9;C146.020752,52.965012 146.095688,53.157246 146.010742,53.215767 &#10;&#9;C146.328125,53.679749 146.488480,54.165142 146.242737,55.096313 &#10;&#9;C141.048111,59.792362 139.052063,65.878685 136.749084,71.758125 &#10;&#9;C135.291168,75.480118 133.869431,79.218857 132.464096,82.961365 &#10;&#9;C131.251328,86.191071 129.576859,88.441452 125.652565,88.332474 &#10;&#9;C121.733032,88.223633 117.798050,88.518456 116.079971,83.385590 &#10;&#9;C115.882660,82.403191 115.811913,81.793541 115.461525,81.042023 &#10;&#9;C113.019028,78.790611 112.897522,75.724083 111.440224,72.893066 &#10;&#9;C110.987946,71.877052 110.850090,71.119865 110.480072,70.405998 &#10;&#9;C109.819809,71.360046 109.797729,72.447632 109.643982,73.878830 &#10;&#9;C108.142998,77.754349 106.353210,81.126205 105.122383,84.726799 &#10;&#9;C104.004784,87.996132 101.866432,89.568130 98.381317,89.249695 &#10;&#9;C94.820709,88.924362 91.571632,88.374954 90.064339,84.310081 &#10;&#9;C87.090675,76.290703 83.510696,68.514793 80.045067,60.697609 &#10;&#9;C79.186722,58.761494 78.433411,56.692608 76.374680,55.044891 &#10;&#9;C76.353119,51.886005 78.555168,53.060200 79.882378,53.036816 &#10;&#9;C86.585106,52.918705 93.291046,52.983490 100.458824,53.012909 &#10;&#9;C100.580772,59.055058 103.596031,64.037201 105.869781,69.287086 &#10;&#9;C108.288422,65.153564 108.052505,62.700371 105.040260,57.696426 &#10;&#9;C104.213043,56.322247 102.360802,55.531166 102.839981,53.290016 &#10;&#9;C111.388344,53.023190 119.695786,53.003380 128.466919,53.009071 &#10;&#9;C126.069717,59.411762 130.518585,64.082550 132.394760,69.871117 &#10;&#9;C136.718399,62.035915 136.649551,61.019947 131.834641,54.973171 &#10;&#9;C131.524826,54.584110 131.512817,54.047104 131.837158,53.290230 &#10;z"/>
<path fill="#060606" opacity="1.000000" stroke="none" d="M349.998322,65.415024 &#10;&#9;C355.054169,55.001923 365.561646,50.136665 378.539764,52.244995 &#10;&#9;C380.799896,52.612160 382.996704,53.369473 385.607239,53.993130 &#10;&#9;C392.823730,55.548481 397.555389,61.472240 398.309967,69.851196 &#10;&#9;C397.744415,79.455696 393.360413,84.985901 384.649750,87.628014 &#10;&#9;C382.893829,88.160629 381.044220,88.196274 378.919678,88.929298 &#10;&#9;C375.186920,89.578590 371.844879,89.489227 368.088013,89.125816 &#10;&#9;C366.600952,88.845573 365.575775,88.398018 364.046875,88.332382 &#10;&#9;C353.066986,85.267197 345.627441,75.645554 349.998322,65.415024 &#10;z"/>
<path fill="#050505" opacity="1.000000" stroke="none" d="M178.364746,55.288574 &#10;&#9;C178.090530,54.497692 178.069489,54.022095 178.048431,53.546494 &#10;&#9;C184.384857,53.465889 182.660614,48.659420 182.994125,45.082001 &#10;&#9;C184.073776,33.500919 195.448746,27.594898 205.705185,33.618591 &#10;&#9;C207.702728,34.297070 208.463974,35.614544 209.039215,37.548321 &#10;&#9;C209.197235,38.452473 209.240585,38.975830 209.264587,39.898178 &#10;&#9;C209.273270,41.366779 209.145462,42.422153 208.705444,43.831322 &#10;&#9;C206.586624,47.187195 203.674438,48.226860 199.882690,48.221535 &#10;&#9;C197.793518,48.075619 196.344803,47.284771 194.682220,46.246872 &#10;&#9;C192.552261,47.617310 195.072723,47.802505 195.492767,48.930313 &#10;&#9;C198.037338,51.179276 200.833023,51.508205 203.694519,51.706421 &#10;&#9;C205.023499,51.798477 206.542526,51.941841 207.161301,53.296734 &#10;&#9;C207.915527,54.948212 206.442368,55.651291 205.340240,56.343800 &#10;&#9;C203.689468,57.381054 203.460983,58.992069 203.445618,60.696487 &#10;&#9;C203.390030,66.859962 203.436279,73.023735 203.420853,79.187233 &#10;&#9;C203.414917,81.561729 204.178162,83.404404 206.697784,84.738098 &#10;&#9;C207.008316,84.986084 207.000488,84.995605 207.002319,84.996323 &#10;&#9;C208.094147,87.751572 205.780487,88.421165 204.230515,88.458527 &#10;&#9;C196.020462,88.656387 187.793396,88.909393 179.601761,87.989265 &#10;&#9;C178.769119,87.895729 178.126099,87.300835 177.640045,86.099640 &#10;&#9;C177.755051,84.656197 178.555206,84.245514 179.671295,83.593094 &#10;&#9;C183.026276,74.687523 181.926010,65.892021 180.505173,57.113949 &#10;&#9;C180.403641,56.486683 179.254242,56.123512 178.364746,55.288574 &#10;z"/>
<path fill="#D8D8D8" opacity="1.000000" stroke="none" d="M349.957214,65.122261 &#10;&#9;C348.914001,77.290894 351.858734,82.216751 363.653503,87.042252 &#10;&#9;C364.660248,87.809258 365.476746,88.005249 366.688171,87.974167 &#10;&#9;C370.707550,87.952637 374.404297,87.939346 378.559326,87.988564 &#10;&#9;C388.974274,87.877731 395.893890,82.857155 397.770874,74.459564 &#10;&#9;C398.065521,73.141281 398.125397,71.847397 397.431702,70.273346 &#10;&#9;C396.453461,62.845818 392.979736,57.612331 386.175049,54.324112 &#10;&#9;C387.248077,52.641476 388.667816,52.872253 390.016144,53.781212 &#10;&#9;C394.033081,56.489113 397.945099,59.336876 399.797577,64.084251 &#10;&#9;C400.226349,65.183014 400.444000,66.734879 401.777008,66.595375 &#10;&#9;C403.689331,66.395233 402.942047,64.554642 403.067383,63.348484 &#10;&#9;C403.229645,61.786732 402.894806,60.488091 401.388794,59.504456 &#10;&#9;C400.029694,58.616798 398.578949,57.502270 399.725769,55.218658 &#10;&#9;C403.773987,54.319931 405.046844,55.708652 404.974792,59.703064 &#10;&#9;C404.732208,73.151627 404.925415,86.607643 404.847931,100.060219 &#10;&#9;C404.840515,101.348946 405.815063,103.103424 403.398865,103.900879 &#10;&#9;C403.008270,96.356224 403.065552,88.862663 403.066040,81.369095 &#10;&#9;C403.066101,80.286957 403.502686,78.771233 401.960083,78.434372 &#10;&#9;C400.831329,78.187881 400.375488,79.291374 399.983673,80.260094 &#10;&#9;C395.445892,91.479568 381.865875,93.358208 371.637054,92.669182 &#10;&#9;C365.941650,92.285515 360.769257,90.474808 355.802216,87.824570 &#10;&#9;C354.297058,87.021461 352.703156,86.168983 351.858032,88.720383 &#10;&#9;C350.881683,91.667786 348.507965,91.954430 345.828186,91.945221 &#10;&#9;C330.172577,91.891441 314.516632,91.929169 298.860870,91.906845 &#10;&#9;C295.888031,91.902611 292.950012,91.725761 293.727722,87.223541 &#10;&#9;C295.705872,87.013680 297.422302,87.023903 299.561340,87.108200 &#10;&#9;C306.064972,88.733223 312.199921,88.007423 318.672272,87.408211 &#10;&#9;C319.285065,87.020805 319.798615,86.706329 319.785278,86.682083 &#10;&#9;C315.434570,78.784035 318.626678,70.247375 317.754089,61.647430 &#10;&#9;C317.956268,60.317184 318.194580,59.441055 318.830322,58.361652 &#10;&#9;C323.095123,55.687721 324.330414,58.762024 324.477661,61.522686 &#10;&#9;C324.849426,68.492523 324.393738,75.506332 324.760742,82.476662 &#10;&#9;C324.895111,85.028992 322.355377,84.674049 321.837280,86.137352 &#10;&#9;C322.822174,87.486458 324.102203,86.774590 325.573883,87.102348 &#10;&#9;C332.064758,88.737289 338.199890,88.005424 344.672241,87.408730 &#10;&#9;C346.058716,86.812294 347.371185,87.375992 348.575623,85.846603 &#10;&#9;C341.297485,85.484543 343.446350,80.233856 343.324371,76.179016 &#10;&#9;C343.205109,72.215408 343.325745,68.245224 343.280884,64.278603 &#10;&#9;C343.200226,57.151131 341.338898,54.599953 334.318878,52.104958 &#10;&#9;C339.576996,50.352749 346.009521,54.917408 347.857727,61.860207 &#10;&#9;C348.188995,63.104511 347.820892,64.603951 349.957214,65.122261 &#10;z"/>
<path fill="#050505" opacity="1.000000" stroke="none" d="M210.723755,52.207798 &#10;&#9;C218.085129,51.564526 221.316803,48.967747 231.398773,35.614429 &#10;&#9;C232.423828,39.396851 232.561981,42.913769 232.402618,46.403442 &#10;&#9;C232.229538,50.193180 231.832123,53.885830 238.066055,53.618427 &#10;&#9;C232.524277,55.809616 232.176483,59.874001 232.335236,64.324394 &#10;&#9;C232.495300,68.812050 232.341827,73.310219 232.376480,77.803391 &#10;&#9;C232.387817,79.273102 232.209549,81.092842 233.986313,81.602692 &#10;&#9;C235.990295,82.177750 236.182236,80.133675 236.919510,78.970016 &#10;&#9;C237.579178,77.928864 237.375504,76.256042 239.480881,76.039017 &#10;&#9;C241.530106,80.021339 238.694778,82.408768 236.447754,85.373497 &#10;&#9;C231.194702,88.811356 225.942596,90.329727 219.713089,88.399597 &#10;&#9;C217.372162,87.517609 215.388504,86.776154 214.363678,84.293076 &#10;&#9;C214.202179,83.487167 214.069260,83.071899 213.800262,82.359222 &#10;&#9;C210.827530,77.093063 212.307266,71.659859 212.041000,66.426437 &#10;&#9;C211.840179,62.479244 212.500931,58.450798 209.195816,55.229126 &#10;&#9;C207.960693,54.025181 208.614349,52.799332 210.723755,52.207798 &#10;z"/>
<path fill="#020202" opacity="1.000000" stroke="none" d="M146.213928,55.033936 &#10;&#9;C146.008591,54.365612 146.001892,54.052914 145.952393,53.507423 &#10;&#9;C147.981506,53.174805 150.037231,53.075321 152.531494,52.926121 &#10;&#9;C156.640198,51.233990 160.392212,50.968697 164.650635,52.450142 &#10;&#9;C165.486130,52.724316 165.904556,52.755238 166.616714,52.669441 &#10;&#9;C167.679825,52.163338 168.503128,52.007809 169.673706,51.969170 &#10;&#9;C169.989578,51.949718 170.409653,52.023907 170.620087,52.058556 &#10;&#9;C172.764175,53.905525 172.490097,56.315231 172.514694,58.601513 &#10;&#9;C172.584152,65.055305 172.525772,71.509933 172.546265,77.964226 &#10;&#9;C172.553757,80.323189 172.773254,82.443489 174.962219,84.101357 &#10;&#9;C177.531281,86.047089 176.225113,87.971283 173.807312,88.042976 &#10;&#9;C165.121262,88.300552 156.375687,90.125412 147.371033,87.273140 &#10;&#9;C145.780243,84.023010 148.312195,85.375015 149.646881,84.926468 &#10;&#9;C152.048126,83.678200 152.026657,81.686798 152.013916,79.648193 &#10;&#9;C151.982803,74.668709 151.770294,69.674644 152.072250,64.713295 &#10;&#9;C152.352020,60.116543 150.746445,57.024700 146.213928,55.033936 &#10;z"/>
<path fill="#CDCDCD" opacity="1.000000" stroke="none" d="M26.914515,89.538101 &#10;&#9;C31.488409,85.121643 35.781902,84.897255 41.700779,87.606949 &#10;&#9;C49.319191,91.094704 57.522007,88.889481 64.579918,84.690514 &#10;&#9;C75.474945,78.208725 76.109756,62.253979 65.802055,54.785343 &#10;&#9;C60.315479,50.809944 54.292187,47.566254 48.452480,44.090885 &#10;&#9;C45.316742,42.224712 43.032047,39.885273 44.442444,36.036034 &#10;&#9;C45.817120,32.284286 49.131039,31.733650 52.688644,32.027641 &#10;&#9;C60.843132,32.701511 67.283974,38.112194 69.657654,46.732155 &#10;&#9;C66.899254,46.304016 66.177086,43.567654 64.669136,41.740425 &#10;&#9;C61.952347,38.448399 58.360069,37.726879 54.665005,37.012764 &#10;&#9;C52.781387,36.648727 50.884274,37.221352 50.095516,39.159920 &#10;&#9;C49.313999,41.080700 50.111610,42.568371 51.910854,43.755287 &#10;&#9;C57.830479,47.660336 64.115654,50.945496 69.811394,55.262512 &#10;&#9;C80.871086,63.645069 79.409668,80.207787 69.782249,87.184227 &#10;&#9;C60.609463,93.831215 50.339561,96.729660 39.443275,90.740234 &#10;&#9;C37.094810,89.449341 35.546501,90.425827 33.509914,91.363976 &#10;&#9;C31.228144,92.415062 28.121742,94.678932 26.914515,89.538101 &#10;z"/>
<path fill="#D1D1D1" opacity="1.000000" stroke="none" d="M147.043747,87.376160 &#10;&#9;C156.646667,86.858139 166.316254,87.543625 176.378754,86.173027 &#10;&#9;C169.427505,85.961700 171.137650,81.176582 171.091995,77.462326 &#10;&#9;C170.991821,69.313774 170.972610,61.164230 170.875443,52.554146 &#10;&#9;C173.540329,51.840607 174.466125,55.623947 177.731262,54.974350 &#10;&#9;C181.394470,54.533932 183.222961,55.120083 183.005020,59.286297 &#10;&#9;C182.616867,66.706238 182.949890,74.162186 182.873932,81.601982 &#10;&#9;C182.862289,82.741699 183.684937,84.330040 181.398682,84.918800 &#10;&#9;C178.550537,81.424721 179.929932,77.501335 179.575180,73.799911 &#10;&#9;C179.178757,69.663582 180.408768,65.358170 178.061752,61.388126 &#10;&#9;C177.460556,69.045036 176.911957,76.686195 178.157654,84.700623 &#10;&#9;C177.849091,86.237381 178.139450,86.972580 179.519165,86.969780 &#10;&#9;C188.344543,86.951874 197.169968,86.965111 205.995377,86.958214 &#10;&#9;C206.749710,86.957626 207.205414,86.567451 207.129639,85.387970 &#10;&#9;C209.211624,84.935684 211.513947,85.800377 211.363449,87.967941 &#10;&#9;C211.200775,90.310928 209.066757,91.864212 206.398773,91.865715 &#10;&#9;C188.171844,91.876015 169.944931,91.876801 151.718002,91.869125 &#10;&#9;C148.985535,91.867981 147.377502,90.540558 147.043747,87.376160 &#10;z"/>
<path fill="#CDCDCD" opacity="1.000000" stroke="none" d="M243.924347,89.568100 &#10;&#9;C248.502243,85.085701 252.837753,84.955826 258.750366,87.624191 &#10;&#9;C266.393768,91.073662 274.589630,88.884163 281.637543,84.648834 &#10;&#9;C292.374969,78.196365 293.031830,62.653427 283.170654,54.968742 &#10;&#9;C280.956543,53.243320 278.496063,51.834084 275.953491,50.033337 &#10;&#9;C282.023407,50.695614 286.936523,54.061325 290.397583,59.070065 &#10;&#9;C298.870789,71.332153 292.493225,87.957184 277.164795,92.165703 &#10;&#9;C269.382446,94.302383 262.707520,93.969704 255.832687,90.399330 &#10;&#9;C254.169083,89.535347 252.767960,90.186737 251.165878,90.961945 &#10;&#9;C248.685120,92.162315 245.902313,93.336082 243.924347,89.568100 &#10;z"/>
<path fill="#D1D1D1" opacity="1.000000" stroke="none" d="M145.725662,54.900143 &#10;&#9;C151.373077,54.091446 152.793106,56.557194 152.395859,61.716858 &#10;&#9;C151.888443,68.307404 152.331223,74.967606 152.220505,81.595383 &#10;&#9;C152.200363,82.800507 153.302612,84.787666 150.366623,84.961571 &#10;&#9;C152.293411,77.395569 150.818756,69.723351 150.976517,62.145443 &#10;&#9;C151.038010,59.190502 148.940109,59.723179 147.245575,61.121700 &#10;&#9;C142.935608,64.678749 142.028732,70.092010 139.946381,74.838287 &#10;&#9;C138.245895,78.714195 137.065186,82.818329 135.361053,86.692383 &#10;&#9;C133.201904,91.600777 129.797882,93.032166 122.373238,91.793098 &#10;&#9;C118.007111,91.064445 116.037277,87.707741 115.726517,83.246758 &#10;&#9;C118.390205,83.693771 118.341751,87.164398 121.892052,87.270027 &#10;&#9;C127.328934,87.431793 130.685074,86.417336 132.293976,80.572052 &#10;&#9;C133.904175,74.722107 136.596329,69.162888 138.915390,63.517792 &#10;&#9;C140.303711,60.138294 141.908676,56.856144 145.725662,54.900143 &#10;z"/>
<path fill="#D8D8D8" opacity="1.000000" stroke="none" d="M210.822266,51.882927 &#10;&#9;C211.523254,53.328316 207.682510,54.193264 210.004929,54.555466 &#10;&#9;C214.855377,55.311935 213.035553,58.493099 213.174667,60.799736 &#10;&#9;C213.584503,67.594841 212.768768,74.429863 213.690735,81.640564 &#10;&#9;C211.185822,81.030128 211.128815,78.826584 211.110321,76.656075 &#10;&#9;C211.073578,72.339508 211.099487,68.022415 211.095413,63.705540 &#10;&#9;C211.093628,61.829014 211.195877,59.905621 208.425964,59.957523 &#10;&#9;C206.023758,60.002537 205.844025,61.626869 205.953323,63.386204 &#10;&#9;C206.383362,70.307892 204.914398,77.310516 206.922577,84.576721 &#10;&#9;C202.701035,85.779007 201.246857,84.167114 201.576324,79.697113 &#10;&#9;C202.013214,73.770058 201.804169,67.783394 201.644104,61.828487 &#10;&#9;C201.534683,57.757717 200.925674,53.616829 207.663528,54.195000 &#10;&#9;C203.015228,52.373508 197.544174,54.185616 194.024963,49.589817 &#10;&#9;C193.405197,48.072517 192.944839,46.878349 193.757874,45.200268 &#10;&#9;C195.500137,45.488724 196.942535,46.149487 198.686005,46.975697 &#10;&#9;C202.639221,48.809486 205.669769,48.331314 207.750824,44.255569 &#10;&#9;C207.939850,42.867809 208.136749,41.825691 208.446518,40.401520 &#10;&#9;C208.777817,39.506634 208.872467,38.988834 208.486877,38.221703 &#10;&#9;C207.652573,36.798088 206.953384,35.609978 206.140289,34.095284 &#10;&#9;C206.293533,31.850550 207.203781,32.212238 208.384644,33.033985 &#10;&#9;C212.570969,35.947201 213.797699,42.372784 211.093903,48.133606 &#10;&#9;C210.534760,49.324936 209.474915,50.290302 210.822266,51.882927 &#10;z"/>
<path fill="#CDCDCD" opacity="1.000000" stroke="none" d="M427.992188,103.396164 &#10;&#9;C425.065308,104.492165 423.363098,103.957375 423.561218,100.244789 &#10;&#9;C423.842133,94.980583 423.632507,89.690201 423.632507,84.536476 &#10;&#9;C425.264099,84.102081 425.950836,84.986465 426.778809,85.455521 &#10;&#9;C436.351440,90.878532 446.112640,87.075050 449.138794,76.449631 &#10;&#9;C451.497772,68.166649 450.307190,60.608749 443.090820,54.481186 &#10;&#9;C443.740356,52.959263 444.492706,53.481483 445.413666,54.087517 &#10;&#9;C457.615143,62.116882 457.206360,83.529701 443.970795,90.610504 &#10;&#9;C440.523865,92.454567 437.131134,92.034782 433.801147,91.769951 &#10;&#9;C428.819580,91.373749 427.182220,93.256966 427.844666,97.952988 &#10;&#9;C428.075439,99.588814 427.922028,101.278824 427.992188,103.396164 &#10;z"/>
<path fill="#D1D1D1" opacity="1.000000" stroke="none" d="M76.189072,55.090057 &#10;&#9;C78.703369,54.545441 79.377968,56.314121 80.184578,58.254570 &#10;&#9;C83.751068,66.834267 87.683357,75.269653 91.002525,83.941269 &#10;&#9;C92.775024,88.572044 96.312737,86.576637 99.245827,87.114632 &#10;&#9;C102.036148,87.626442 103.435333,86.430374 104.285797,83.778229 &#10;&#9;C105.398094,80.309570 106.912964,76.969994 108.481262,73.323540 &#10;&#9;C109.387886,72.271187 110.241631,71.833664 111.674042,71.866577 &#10;&#9;C113.585487,74.451729 115.247139,76.955635 115.181671,80.509552 &#10;&#9;C112.508209,80.716782 110.802597,81.122192 109.634178,84.343712 &#10;&#9;C107.047287,91.476173 102.162514,93.528015 94.628983,91.835403 &#10;&#9;C91.731613,91.184433 90.455490,88.710968 89.691299,86.601303 &#10;&#9;C85.828384,75.937233 80.988571,65.718460 76.189072,55.090057 &#10;z"/>
<path fill="#D1D1D1" opacity="1.000000" stroke="none" d="M287.081360,49.314934 &#10;&#9;C289.099457,49.063030 288.826080,47.567631 288.822845,46.286827 &#10;&#9;C288.809906,41.182293 288.782257,36.077805 288.828857,30.512459 &#10;&#9;C290.374298,30.658791 291.850952,31.265959 293.673096,31.941368 &#10;&#9;C293.768616,32.844612 293.693359,33.974205 294.782776,33.827923 &#10;&#9;C299.134491,33.243580 298.948761,35.978668 298.937531,38.936966 &#10;&#9;C298.884094,52.995399 298.950562,67.054344 298.873047,81.112549 &#10;&#9;C298.865997,82.394630 299.829102,84.150475 297.399902,84.923233 &#10;&#9;C297.019897,70.564575 297.088989,56.259216 297.095337,41.953827 &#10;&#9;C297.095947,40.583988 297.689087,38.357464 295.641083,38.297935 &#10;&#9;C293.062256,38.222977 293.907532,40.704170 293.940399,42.134792 &#10;&#9;C293.995117,44.513718 293.524567,46.764095 292.876221,48.984959 &#10;&#9;C291.817749,52.610744 290.157135,52.782867 287.081360,49.314934 &#10;z"/>
<path fill="#060606" opacity="1.000000" stroke="none" d="M152.280121,42.376701 &#10;&#9;C151.272110,34.234344 155.913651,30.530025 166.081146,31.268476 &#10;&#9;C171.026489,33.198242 172.417740,36.526390 170.309052,40.484474 &#10;&#9;C166.895935,46.891022 157.481232,48.107098 152.280121,42.376701 &#10;z"/>
<path fill="#D1D1D1" opacity="1.000000" stroke="none" d="M151.926788,42.144150 &#10;&#9;C156.846573,45.741146 162.165451,46.126637 166.751221,43.004910 &#10;&#9;C171.620346,39.690292 171.709488,35.813091 166.746826,31.608517 &#10;&#9;C171.295395,31.190882 174.548370,33.288784 175.035690,38.484241 &#10;&#9;C175.408035,42.453831 172.651199,45.813282 168.988983,47.675274 &#10;&#9;C167.011108,48.680885 164.992355,49.262497 165.059311,52.332886 &#10;&#9;C161.339493,52.814960 157.611282,52.936527 153.426575,52.967251 &#10;&#9;C156.389435,50.535957 156.014679,48.367584 152.823151,46.086235 &#10;&#9;C151.656921,45.252594 150.546402,44.048973 151.926788,42.144150 &#10;z"/>
<path fill="#D8D8D8" opacity="1.000000" stroke="none" d="M235.634186,85.206711 &#10;&#9;C237.182266,82.230576 239.070938,79.793030 239.860748,76.433746 &#10;&#9;C240.891739,75.698784 241.925308,75.320168 243.291016,74.935623 &#10;&#9;C243.701630,79.005173 243.780106,83.080658 243.742157,87.611877 &#10;&#9;C241.728928,87.711212 239.685074,87.913879 238.476059,89.254761 &#10;&#9;C235.401932,92.664139 230.889328,91.979164 227.169037,93.420952 &#10;&#9;C221.737289,95.526016 213.760437,89.490685 214.030640,84.071960 &#10;&#9;C215.689468,84.934441 217.043839,85.966446 218.684418,87.157478 &#10;&#9;C224.130020,90.364403 231.481110,89.577385 235.634186,85.206711 &#10;z"/>
<path fill="#D8D8D8" opacity="1.000000" stroke="none" d="M131.684067,53.015404 &#10;&#9;C132.037888,53.364841 131.838654,53.851120 131.982147,53.994556 &#10;&#9;C138.179642,60.189877 138.190887,60.189354 134.606354,68.713547 &#10;&#9;C134.102493,69.911758 133.482681,71.061218 132.642960,72.799683 &#10;&#9;C130.760498,68.478371 129.281738,64.559425 127.372101,60.863091 &#10;&#9;C125.794128,57.808739 124.827347,55.279179 129.001892,53.416157 &#10;&#9;C129.717346,53.020485 130.504120,53.006405 131.684067,53.015404 &#10;z"/>
<path fill="#CDCDCD" opacity="1.000000" stroke="none" d="M263.639191,33.738491 &#10;&#9;C271.489471,29.880302 281.436340,34.395950 285.843323,43.697643 &#10;&#9;C284.612061,44.005150 283.651093,43.672298 282.896973,42.563618 &#10;&#9;C280.012329,38.322701 275.371124,37.631596 270.828583,36.935631 &#10;&#9;C268.985077,36.653194 267.035950,37.145912 266.201141,39.024406 &#10;&#9;C265.284149,41.087910 266.931885,42.171280 268.223541,43.539925 &#10;&#9;C269.335632,44.718319 271.413269,44.748226 271.771393,47.037292 &#10;&#9;C268.672424,46.258022 265.969604,44.448639 263.152527,42.280281 &#10;&#9;C261.376404,39.247746 261.966217,36.684170 263.639191,33.738491 &#10;z"/>
<path fill="#D1D1D1" opacity="1.000000" stroke="none" d="M400.044312,106.395584 &#10;&#9;C409.328552,105.997147 418.656708,105.995613 428.447815,105.986610 &#10;&#9;C430.149963,106.155312 431.871124,105.768951 431.660034,107.874901 &#10;&#9;C431.523651,109.235367 430.411835,109.841621 429.158447,109.846069 &#10;&#9;C420.345673,109.877350 411.532410,109.892136 402.720032,109.821609 &#10;&#9;C400.912201,109.807137 400.169830,108.496574 400.044312,106.395584 &#10;z"/>
<path fill="#D1D1D1" opacity="1.000000" stroke="none" d="M102.721878,53.000648 &#10;&#9;C103.304840,55.723324 106.042633,56.616730 107.143135,58.925606 &#10;&#9;C109.438019,63.740299 109.397301,67.869629 106.029099,72.568489 &#10;&#9;C103.714500,67.170570 101.661263,61.973919 99.254066,56.946751 &#10;&#9;C98.112686,54.563091 101.421539,55.369812 100.989685,53.423218 &#10;&#9;C101.402145,53.013897 101.882507,52.986095 102.721878,53.000648 &#10;z"/>
<path fill="#CDCDCD" opacity="1.000000" stroke="none" d="M69.822731,49.184532 &#10;&#9;C72.111343,49.000313 71.820618,47.509541 71.817734,46.242779 &#10;&#9;C71.806152,41.155041 71.775375,36.067341 71.819794,30.519169 &#10;&#9;C74.926353,30.414598 76.085220,32.065205 75.939110,35.149746 &#10;&#9;C75.726509,39.637779 75.875664,44.142578 75.852318,48.640133 &#10;&#9;C75.843567,50.327145 75.185303,51.669899 73.352921,51.778732 &#10;&#9;C71.633835,51.880825 69.439133,52.369991 69.822731,49.184532 &#10;z"/>
<path fill="#CDCDCD" opacity="1.000000" stroke="none" d="M26.306309,73.065048 &#10;&#9;C26.739874,77.669495 26.817871,82.416008 26.776512,87.620804 &#10;&#9;C23.726147,83.249802 25.127048,78.214745 26.306309,73.065048 &#10;z"/>
<path fill="#909090" opacity="1.000000" stroke="none" d="M696.065002,263.846130 &#10;&#9;C694.659668,266.140137 693.063354,266.346100 691.645752,264.509094 &#10;&#9;C690.568970,263.113678 690.991516,261.600647 692.687256,260.948029 &#10;&#9;C694.964905,260.071472 696.070251,261.168335 696.065002,263.846130 &#10;z"/>
<path fill="#D1D1D1" opacity="1.000000" stroke="none" d="M145.888123,52.608273 &#10;&#9;C143.300339,52.994522 140.579910,53.024036 137.414398,52.963852 &#10;&#9;C139.699921,49.871086 142.709991,50.811382 145.888123,52.608273 &#10;z"/>
<path fill="#CDCDCD" opacity="1.000000" stroke="none" d="M440.893066,52.760872 &#10;&#9;C440.130920,52.883690 439.298157,52.698051 438.225830,52.295059 &#10;&#9;C439.095184,50.964802 440.087646,50.733471 440.893066,52.760872 &#10;z"/>
<path fill="#D1D1D1" opacity="1.000000" stroke="none" d="M169.785614,51.746857 &#10;&#9;C169.175323,52.186512 168.361069,52.423306 167.228622,52.606411 &#10;&#9;C167.354904,51.035568 168.342789,50.957474 169.785614,51.746857 &#10;z"/>
<path fill="#D8D8D8" opacity="1.000000" stroke="none" d="M328.838684,51.749447 &#10;&#9;C328.471039,52.103207 327.956268,52.269867 327.172638,52.377274 &#10;&#9;C327.210632,51.382278 327.754700,51.007793 328.838684,51.749447 &#10;z"/>
<path fill="#CDCDCD" opacity="1.000000" stroke="none" d="M275.308777,49.158089 &#10;&#9;C274.806488,49.392746 274.505402,49.294022 274.087402,48.914024 &#10;&#9;C274.051636,48.026287 274.339050,47.414608 275.147430,47.693199 &#10;&#9;C275.372101,47.770626 275.375336,48.490513 275.308777,49.158089 &#10;z"/>
<path fill="#C8C8C8" opacity="1.000000" stroke="none" d="M318.553619,87.124161 &#10;&#9;C318.806610,87.635338 318.627563,88.431831 318.380005,88.453735 &#10;&#9;C312.306244,88.990974 306.207397,90.022903 300.095093,87.564072 &#10;&#9;C306.019165,87.137711 312.054413,87.093155 318.553619,87.124161 &#10;z"/>
<path fill="#C8C8C8" opacity="1.000000" stroke="none" d="M344.553833,87.123924 &#10;&#9;C344.806580,87.635880 344.627228,88.432243 344.379730,88.454041 &#10;&#9;C338.306366,88.988785 332.207642,90.027435 326.095886,87.561211 &#10;&#9;C332.019470,87.135483 338.054718,87.091476 344.553833,87.123924 &#10;z"/>
<path fill="#909090" opacity="1.000000" stroke="none" d="M318.712250,58.150604 &#10;&#9;C318.820435,59.050541 318.580566,59.992413 318.082886,61.079712 &#10;&#9;C316.933716,60.023884 317.407532,59.065300 318.712250,58.150604 &#10;z"/>
<path fill="#D8D8D8" opacity="1.000000" stroke="none" d="M423.642517,70.969849 &#10;&#9;C423.655823,67.164513 423.779907,63.834747 423.647400,60.515224 &#10;&#9;C423.539703,57.817253 424.852692,56.467606 427.305908,56.102001 &#10;&#9;C430.223511,55.667194 430.696655,58.012836 430.753265,59.910343 &#10;&#9;C430.946472,66.388206 430.927643,72.876587 430.798950,79.357162 &#10;&#9;C430.763062,81.163086 430.228180,83.238029 427.675171,82.968384 &#10;&#9;C425.370636,82.724991 423.533722,81.786079 423.628723,78.931496 &#10;&#9;C423.711639,76.440216 423.643677,73.943916 423.642517,70.969849 &#10;z"/>
<path fill="#C8C8C8" opacity="1.000000" stroke="none" d="M263.387604,33.472645 &#10;&#9;C264.513245,35.984016 262.480316,38.428631 263.010132,41.536850 &#10;&#9;C259.766541,39.180077 260.640594,36.415684 263.387604,33.472645 &#10;z"/>
<path fill="#CDCDCD" opacity="1.000000" stroke="none" d="M112.042282,71.576401 &#10;&#9;C111.462944,72.918167 110.469688,72.993561 109.084076,73.052078 &#10;&#9;C109.200989,71.560898 109.694084,70.049599 110.400002,67.886032 &#10;&#9;C111.139801,69.404076 111.589867,70.327583 112.042282,71.576401 &#10;z"/>
<path fill="#F1F1F1" opacity="1.000000" stroke="none" d="M376.557892,57.742264 &#10;&#9;C377.022400,65.771202 377.111328,73.530685 377.141113,81.290398 &#10;&#9;C377.149872,83.569962 376.703369,85.643387 373.434448,85.868683 &#10;&#9;C371.615936,84.749908 371.014557,83.328117 371.014648,81.541733 &#10;&#9;C371.014893,75.106041 370.898651,68.668182 371.071289,62.235630 &#10;&#9;C371.155090,59.112755 372.159088,56.593216 376.557892,57.742264 &#10;z"/>
<path fill="#C8C8C8" opacity="1.000000" stroke="none" d="M377.022644,57.623566 &#10;&#9;C374.496765,57.618492 372.307434,58.363873 372.260773,60.996693 &#10;&#9;C372.118774,69.006454 371.109985,77.058746 372.955322,85.423576 &#10;&#9;C370.174591,86.054634 369.736298,83.962357 369.714996,81.959335 &#10;&#9;C369.630585,74.028481 369.671783,66.095467 369.756104,58.164207 &#10;&#9;C369.778412,56.062931 370.407013,54.207134 373.028717,54.025673 &#10;&#9;C375.371735,53.863495 376.873962,54.725414 377.022644,57.623566 &#10;z"/>
<path fill="#C8C8C8" opacity="1.000000" stroke="none" d="M397.161072,70.381889 &#10;&#9;C401.375549,73.444649 398.060883,77.054596 396.804749,79.967735 &#10;&#9;C394.259125,85.871407 386.160553,89.472794 379.281708,88.335587 &#10;&#9;C381.835907,87.127594 384.764252,86.447212 387.450348,85.231506 &#10;&#9;C393.587646,82.453827 397.076294,77.737976 397.161072,70.381889 &#10;z"/>
<path fill="#C8C8C8" opacity="1.000000" stroke="none" d="M366.769836,87.747696 &#10;&#9;C365.971191,89.279625 364.992004,89.372345 364.038177,87.508049 &#10;&#9;C364.831146,87.306099 365.680023,87.417786 366.769836,87.747696 &#10;z"/>
<path fill="#FFFFFF" opacity="1.000000" stroke="none" d="M178.387131,85.032021 &#10;&#9;C176.144028,83.156891 175.766754,80.838020 175.836639,78.227966 &#10;&#9;C175.978653,72.923050 175.797592,67.609612 175.930984,62.304249 &#10;&#9;C175.970139,60.747498 174.908051,58.037811 177.896515,58.208115 &#10;&#9;C180.097549,58.333546 181.111786,60.302834 181.114502,62.550747 &#10;&#9;C181.122131,68.854797 181.123901,75.158844 181.122070,81.462898 &#10;&#9;C181.121826,82.292091 181.087128,83.121269 181.017944,84.408386 &#10;&#9;C180.229874,84.906952 179.492249,84.947601 178.387131,85.032021 &#10;z"/>
<path fill="#C8C8C8" opacity="1.000000" stroke="none" d="M207.437271,44.074669 &#10;&#9;C209.941437,47.167377 206.699753,47.969460 205.084122,48.614143 &#10;&#9;C203.315002,49.320065 200.901993,49.906219 199.079193,47.506134 &#10;&#9;C202.038422,47.118320 205.047852,46.977970 207.437271,44.074669 &#10;z"/>
<path fill="#C8C8C8" opacity="1.000000" stroke="none" d="M194.045410,44.326012 &#10;&#9;C194.020325,46.011623 193.982880,47.195278 193.913376,48.821907 &#10;&#9;C191.933289,48.176670 191.616898,46.189514 191.228546,44.289574 &#10;&#9;C191.018143,43.260231 191.301834,42.295860 192.599457,42.216755 &#10;&#9;C193.671234,42.151417 193.812790,43.055065 194.045410,44.326012 &#10;z"/>
<path fill="#909090" opacity="1.000000" stroke="none" d="M194.184113,34.326527 &#10;&#9;C197.797485,34.502190 195.100723,35.716255 194.721329,36.417423 &#10;&#9;C194.384766,37.039474 193.538147,37.954586 192.843170,36.960850 &#10;&#9;C192.149948,35.969578 193.241180,35.267376 194.184113,34.326527 &#10;z"/>
<path fill="#D1D1D1" opacity="1.000000" stroke="none" d="M208.305054,38.331966 &#10;&#9;C209.547043,38.268169 210.413635,38.670769 208.805191,39.955486 &#10;&#9;C208.459045,39.572220 208.358704,39.124977 208.305054,38.331966 &#10;z"/>
<path fill="#C8C8C8" opacity="1.000000" stroke="none" d="M192.250000,39.750000 &#10;&#9;C192.272888,39.222740 192.564743,38.850742 192.873550,39.414490 &#10;&#9;C192.927032,39.512157 192.633331,39.799995 192.250000,39.750000 &#10;z"/>
<path fill="#C8C8C8" opacity="1.000000" stroke="none" d="M235.349869,84.981529 &#10;&#9;C237.610779,86.031311 236.410782,87.022644 235.477005,87.931488 &#10;&#9;C232.464935,90.863106 222.661972,90.916733 219.043152,87.686157 &#10;&#9;C224.596252,88.593010 230.050766,88.637825 235.349869,84.981529 &#10;z"/>
</svg>