<svg xmlns="http://www.w3.org/2000/svg" width="150" height="36" viewBox="0 0 150 36" fill="none"><path d="M138.47 35.9999C136.096 35.9999 131.978 35.5621 130.04 34.4918C130.186 32.3026 130.476 28.6053 130.67 26.708H130.961L138.131 35.2215H138.567C139.729 35.2215 140.795 34.2486 140.795 32.5459C140.795 27.1459 130.186 27.3405 130.186 20.1891C130.186 14.9351 134.836 12.5513 141.861 12.5513C144.526 12.5513 146.948 12.9891 149.37 14.0594C149.273 16.1026 148.983 19.508 148.789 21.5026H148.547L141.474 13.3296H141.377C139.972 13.3296 139.39 14.5459 139.39 15.7621C139.39 20.7242 150 21.5999 150 29.4324C150 34.2972 145.495 35.9999 138.47 35.9999Z" fill="white"></path><path d="M129.162 33.5188L129.307 33.8594C128.144 35.3675 126.158 35.9999 123.639 35.9999C120.248 35.9999 117.874 34.9296 116.856 33.081C115.5 34.881 112.884 35.9999 110.219 35.9999C106.198 35.9999 103.824 33.8107 103.824 30.2107C103.824 25.5891 107.797 23.1567 116.324 22.5242V17.8053C116.324 14.7405 115.742 13.3296 114.531 13.3296H114.24L106.634 22.5729H106.392C105.956 18.9242 105.811 17.0756 105.617 13.8161C108.136 13.0378 110.946 12.5513 114.386 12.5513C122.67 12.5513 126.013 15.8107 126.013 20.7729V31.7675C126.013 33.081 126.788 33.8107 127.805 33.8107C128.193 33.8107 128.629 33.7134 129.162 33.5188ZM113.175 29.0918C113.175 31.8161 114.095 32.8378 115.306 32.8378C115.694 32.8378 115.936 32.8378 116.324 32.5459V23.3513C114.192 23.9837 113.175 26.0269 113.175 29.0918Z" fill="white"></path><path d="M102.217 32.6434L102.604 33.1785C101.441 34.7839 98.9707 36.0001 95.7733 36.0001C91.074 36.0001 88.1188 33.3731 88.1188 28.265V14.0596H84.8245V13.5731L88.5064 12.3569C90.8802 10.0217 94.4652 6.81093 97.5658 4.13525H97.808V13.038H102.459V14.0596H97.808V30.6488C97.808 32.4488 98.5832 33.4704 99.9881 33.4704C100.715 33.4704 101.538 33.2271 102.217 32.6434Z" fill="white"></path><path d="M76.2848 22.1838L83.2126 33.9081C84.3269 34.3459 85.1505 34.7838 86.1194 35.2703V35.5135H69.0179V35.2703C70.1806 34.7351 71.0042 34.3459 72.2154 33.9081L67.9037 26.6108L64.3187 31.427C65.2391 32.5459 66.4503 34.2487 67.2739 35.4649V35.5135H58.1176V35.4649C59.2318 34.3946 61.1697 32.7405 63.0106 31.427L67.3223 25.7351L61.1212 15.2757C60.3945 14.5946 59.7163 13.9135 58.8927 13.0865V13.0378H74.347V13.0865C73.7172 13.7676 72.9905 14.4487 72.1185 15.1297L75.7519 21.2595L78.804 17.173C77.7382 15.9081 76.6724 14.4 75.8488 13.0865V13.0378H85.0051V13.0865C83.9393 14.1081 81.6624 16.1027 80.209 17.173L76.2848 22.1838Z" fill="white"></path><path d="M51.6995 11.2378C48.3567 11.2378 46.0798 8.85405 46.0798 5.59459C46.0798 2.33513 48.3567 0 51.6995 0C55.0423 0 57.3677 2.33513 57.3677 5.59459C57.3677 8.85405 55.0423 11.2378 51.6995 11.2378ZM56.5926 33.4216C57.4161 34.2 57.8522 34.7838 58.3366 35.4649V35.5135H44.7233V35.4649C45.3531 34.7838 45.9344 34.2 46.9033 33.4216V17.9027L44.7233 15.9081V15.6162C47.6785 14.4486 53.2498 13.0378 56.5926 12.5027V33.4216Z" fill="white"></path><path d="M38.0786 6.12981L39.3867 33.4704C40.404 34.1514 41.2276 34.7839 42.0027 35.4649V35.5136H27.1298V35.4649C27.8565 34.7352 28.5832 34.1514 29.6006 33.4704L28.5832 7.68657H28.4863L18.9424 35.1731H15.4543L6.58867 7.20008L5.18373 31.1352C6.87934 32.546 8.42962 34.0541 9.68922 35.4649V35.5136H0V35.4649C1.16271 34.1028 2.85832 32.4001 4.26325 31.1352L5.76508 6.17846C4.50549 5.30278 3.6819 4.719 2.71298 3.84333V3.79468H15.5027L21.6554 24.5676L28.8254 3.79468H41.0823V3.84333C40.2102 4.67035 39.2898 5.40008 38.0786 6.12981Z" fill="white"></path></svg>